# Blender v2.90.1 OBJ File: ''
# www.blender.org
o MD_Skybox_Sphere
v 0.000000 0.707107 -0.707107
v 0.000000 0.382683 -0.923880
v 0.000000 -0.382684 -0.923880
v 0.000000 -0.923880 -0.382683
v 0.146447 0.923880 -0.353553
v 0.270598 0.707107 -0.653281
v 0.353553 0.382683 -0.853553
v 0.382683 -0.000000 -0.923880
v 0.353553 -0.382684 -0.853553
v 0.270598 -0.707107 -0.653281
v 0.146447 -0.923880 -0.353553
v 0.270598 0.923880 -0.270598
v 0.500000 0.707107 -0.500000
v 0.653281 0.382683 -0.653281
v 0.707107 -0.000000 -0.707107
v 0.653281 -0.382684 -0.653281
v 0.500000 -0.707107 -0.500000
v 0.270598 -0.923880 -0.270598
v 0.353553 0.923880 -0.146447
v 0.653281 0.707107 -0.270598
v 0.853553 0.382683 -0.353553
v 0.923879 -0.000000 -0.382683
v 0.853553 -0.382684 -0.353553
v 0.653281 -0.707107 -0.270598
v 0.353553 -0.923880 -0.146447
v 0.382683 0.923880 -0.000000
v 0.707107 0.707107 -0.000000
v 0.923879 0.382683 -0.000000
v 1.000000 -0.000000 -0.000000
v 0.923879 -0.382684 -0.000000
v 0.707107 -0.707107 -0.000000
v 0.382683 -0.923880 -0.000000
v 0.353553 0.923880 0.146446
v 0.653281 0.707107 0.270598
v 0.853553 0.382683 0.353553
v 0.923879 -0.000000 0.382683
v 0.853553 -0.382684 0.353553
v 0.653281 -0.707107 0.270598
v 0.353553 -0.923880 0.146446
v 0.270598 0.923880 0.270598
v 0.500000 0.707107 0.500000
v 0.653281 0.382683 0.653281
v 0.707106 -0.000000 0.707107
v 0.653281 -0.382684 0.653281
v 0.500000 -0.707107 0.500000
v 0.270598 -0.923880 0.270598
v 0.146446 0.923880 0.353553
v 0.270598 0.707107 0.653281
v 0.353553 0.382683 0.853553
v 0.382683 -0.000000 0.923879
v 0.353553 -0.382684 0.853553
v 0.270598 -0.707107 0.653281
v 0.146446 -0.923880 0.353553
v -0.000000 0.923880 0.382683
v -0.000000 0.707107 0.707106
v -0.000000 0.382683 0.923879
v -0.000000 -0.000000 1.000000
v -0.000000 -0.382684 0.923879
v -0.000000 -0.707107 0.707106
v -0.000000 -0.923880 0.382683
v -0.146447 0.923880 0.353553
v -0.270598 0.707107 0.653281
v -0.353554 0.382683 0.853553
v -0.382684 -0.000000 0.923879
v -0.353554 -0.382684 0.853553
v -0.270598 -0.707107 0.653281
v -0.146447 -0.923880 0.353553
v -0.270598 0.923880 0.270598
v -0.500000 0.707107 0.499999
v -0.653282 0.382683 0.653281
v -0.707107 -0.000000 0.707106
v -0.653282 -0.382684 0.653281
v -0.500000 -0.707107 0.499999
v -0.270598 -0.923880 0.270598
v -0.353553 0.923880 0.146446
v -0.653281 0.707107 0.270597
v -0.853553 0.382683 0.353553
v -0.923879 -0.000000 0.382683
v -0.853553 -0.382684 0.353553
v -0.653281 -0.707107 0.270597
v -0.353553 -0.923880 0.146446
v -0.382683 0.923880 -0.000000
v -0.707106 0.707107 -0.000000
v -0.923879 0.382683 -0.000001
v -1.000000 -0.000000 -0.000001
v -0.923879 -0.382684 -0.000001
v -0.707106 -0.707107 -0.000000
v -0.382683 -0.923880 -0.000000
v -0.353553 0.923880 -0.146447
v -0.653281 0.707107 -0.270598
v -0.853553 0.382683 -0.353554
v -0.923879 -0.000000 -0.382684
v -0.853553 -0.382684 -0.353554
v -0.653281 -0.707107 -0.270598
v -0.353553 -0.923880 -0.146447
v -0.270598 0.923880 -0.270598
v -0.499999 0.707107 -0.500000
v -0.653281 0.382683 -0.653282
v -0.707106 -0.000000 -0.707107
v -0.653281 -0.382684 -0.653282
v -0.499999 -0.707107 -0.500000
v -0.270598 -0.923880 -0.270598
v -0.146446 0.923880 -0.353553
v -0.270598 0.707107 -0.653281
v -0.353553 0.382683 -0.853553
v -0.382683 -0.000000 -0.923880
v -0.353553 -0.382684 -0.853553
v -0.270598 -0.707107 -0.653281
v -0.146446 -0.923880 -0.353553
v -0.000000 1.000000 -0.000000
v 0.000000 0.923880 -0.382683
v 0.000001 -0.000000 -1.000000
v 0.000000 -0.707107 -0.707106
v 0.000000 -1.000000 -0.000000
vt 0.718750 0.000000
vt 0.687500 0.125000
vt 0.750000 0.125000
vt 0.750000 0.250000
vt 0.687500 0.375000
vt 0.750000 0.375000
vt 0.750000 0.500000
vt 0.687500 0.625000
vt 0.750000 0.625000
vt 0.750000 0.750000
vt 0.687500 0.875000
vt 0.750000 0.875000
vt 0.718750 1.000000
vt 0.625000 0.750000
vt 0.687500 0.750000
vt 0.625000 0.125000
vt 0.687500 0.250000
vt 0.625000 0.375000
vt 0.687500 0.500000
vt 0.625000 0.875000
vt 0.656250 1.000000
vt 0.656250 0.000000
vt 0.625000 0.250000
vt 0.625000 0.500000
vt 0.562500 0.250000
vt 0.562500 0.375000
vt 0.562500 0.625000
vt 0.625000 0.625000
vt 0.562500 0.875000
vt 0.593750 1.000000
vt 0.593750 0.000000
vt 0.562500 0.125000
vt 0.562500 0.500000
vt 0.500000 0.875000
vt 0.531250 1.000000
vt 0.531250 0.000000
vt 0.500000 0.125000
vt 0.500000 0.250000
vt 0.500000 0.625000
vt 0.562500 0.750000
vt 0.500000 0.375000
vt 0.437500 0.250000
vt 0.437500 0.500000
vt 0.500000 0.500000
vt 0.500000 0.750000
vt 0.437500 0.875000
vt 0.437500 0.125000
vt 0.437500 0.375000
vt 0.437500 0.750000
vt 0.468750 1.000000
vt 0.468750 0.000000
vt 0.375000 0.250000
vt 0.375000 0.375000
vt 0.375000 0.625000
vt 0.437500 0.625000
vt 0.375000 0.875000
vt 0.406250 1.000000
vt 0.406250 0.000000
vt 0.375000 0.125000
vt 0.375000 0.500000
vt 0.375000 0.750000
vt 0.312500 0.375000
vt 0.312500 0.625000
vt 0.312500 0.875000
vt 0.343750 1.000000
vt 0.343750 0.000000
vt 0.312500 0.125000
vt 0.312500 0.250000
vt 0.281250 0.000000
vt 0.250000 0.125000
vt 0.250000 0.250000
vt 0.250000 0.500000
vt 0.312500 0.500000
vt 0.250000 0.750000
vt 0.312500 0.750000
vt 0.250000 0.375000
vt 0.250000 0.625000
vt 0.250000 0.875000
vt 0.281250 1.000000
vt 0.187500 0.500000
vt 0.187500 0.875000
vt 0.187500 0.250000
vt 0.187500 0.375000
vt 0.187500 0.625000
vt 0.218750 1.000000
vt 0.218750 0.000000
vt 0.187500 0.125000
vt 0.125000 0.125000
vt 0.125000 0.375000
vt 0.125000 0.625000
vt 0.187500 0.750000
vt 0.125000 0.875000
vt 0.156250 1.000000
vt 0.156250 0.000000
vt 0.125000 0.250000
vt 0.125000 0.750000
vt 0.062500 0.625000
vt 0.062500 0.875000
vt 0.093750 1.000000
vt 0.093750 0.000000
vt 0.062500 0.125000
vt 0.062500 0.250000
vt 0.062500 0.500000
vt 0.125000 0.500000
vt 0.062500 0.375000
vt 0.031250 0.000000
vt 0.000000 0.125000
vt 0.000000 0.375000
vt 0.000000 0.625000
vt 0.062500 0.750000
vt 0.000000 0.875000
vt 0.031250 1.000000
vt 1.000000 0.750000
vt 0.937500 0.875000
vt 1.000000 0.875000
vt 0.937500 0.125000
vt 1.000000 0.250000
vt 1.000000 0.125000
vt 0.937500 0.375000
vt 1.000000 0.500000
vt 1.000000 0.375000
vt 0.937500 0.625000
vt 1.000000 0.625000
vt 0.968750 1.000000
vt 0.968750 0.000000
vt 0.875000 0.125000
vt 0.937500 0.250000
vt 0.875000 0.375000
vt 0.937500 0.500000
vt 0.875000 0.625000
vt 0.937500 0.750000
vt 0.875000 0.875000
vt 0.906250 1.000000
vt 0.906250 0.000000
vt 0.812500 0.875000
vt 0.843750 1.000000
vt 0.843750 0.000000
vt 0.812500 0.125000
vt 0.875000 0.250000
vt 0.812500 0.375000
vt 0.812500 0.500000
vt 0.875000 0.500000
vt 0.875000 0.750000
vt 0.812500 0.625000
vt 0.812500 0.250000
vt 0.812500 0.750000
vt 0.781250 1.000000
vt 0.781250 0.000000
vt 0.000000 0.250000
vt 0.000000 0.500000
vt 0.000000 0.750000
vn 0.0000 1.0000 0.0000
vn -0.1542 0.9152 0.3724
vn 0.0000 0.9152 0.4031
vn 0.0000 0.6952 0.7188
vn -0.3548 0.3743 0.8567
vn 0.0000 0.3743 0.9273
vn 0.0000 0.0000 1.0000
vn -0.3548 -0.3743 0.8567
vn 0.0000 -0.3743 0.9273
vn 0.0000 -0.6952 0.7188
vn -0.1542 -0.9152 0.3724
vn 0.0000 -0.9152 0.4031
vn 0.0000 -1.0000 0.0000
vn -0.5083 -0.6952 0.5083
vn -0.2751 -0.6952 0.6641
vn -0.2850 0.9152 0.2850
vn -0.2751 0.6952 0.6641
vn -0.6557 0.3743 0.6557
vn -0.3827 0.0000 0.9239
vn -0.2850 -0.9152 0.2850
vn -0.5083 0.6952 0.5083
vn -0.7071 0.0000 0.7071
vn -0.6641 0.6952 0.2751
vn -0.8567 0.3743 0.3548
vn -0.8567 -0.3743 0.3548
vn -0.6557 -0.3743 0.6557
vn -0.3724 -0.9152 0.1542
vn -0.3724 0.9152 0.1542
vn -0.9239 0.0000 0.3827
vn -0.4031 -0.9152 0.0000
vn -0.4031 0.9152 0.0000
vn -0.7188 0.6952 0.0000
vn -0.9273 -0.3743 0.0000
vn -0.6641 -0.6952 0.2751
vn -0.9273 0.3743 0.0000
vn -0.6641 0.6952 -0.2751
vn -0.9239 0.0000 -0.3827
vn -1.0000 0.0000 0.0000
vn -0.7188 -0.6952 0.0000
vn -0.3724 -0.9152 -0.1542
vn -0.3724 0.9152 -0.1542
vn -0.8567 0.3743 -0.3548
vn -0.6641 -0.6952 -0.2751
vn -0.5083 0.6952 -0.5083
vn -0.6557 0.3743 -0.6557
vn -0.6557 -0.3743 -0.6557
vn -0.8567 -0.3743 -0.3548
vn -0.2850 -0.9152 -0.2850
vn -0.2850 0.9152 -0.2850
vn -0.7071 0.0000 -0.7071
vn -0.5083 -0.6952 -0.5083
vn -0.3548 0.3743 -0.8567
vn -0.3548 -0.3743 -0.8567
vn -0.1542 -0.9152 -0.3724
vn -0.1542 0.9152 -0.3724
vn -0.2751 0.6952 -0.6641
vn 0.0000 0.9152 -0.4031
vn 0.0000 0.6952 -0.7188
vn 0.0000 0.0000 -1.0000
vn -0.3827 0.0000 -0.9239
vn 0.0000 -0.6952 -0.7188
vn -0.2751 -0.6952 -0.6641
vn 0.0000 0.3743 -0.9273
vn 0.0000 -0.3743 -0.9273
vn 0.0000 -0.9152 -0.4031
vn 0.3827 0.0000 -0.9239
vn 0.1542 -0.9152 -0.3724
vn 0.2751 0.6952 -0.6641
vn 0.3548 0.3743 -0.8567
vn 0.3548 -0.3743 -0.8567
vn 0.1542 0.9152 -0.3724
vn 0.2850 0.9152 -0.2850
vn 0.6557 0.3743 -0.6557
vn 0.6557 -0.3743 -0.6557
vn 0.2751 -0.6952 -0.6641
vn 0.2850 -0.9152 -0.2850
vn 0.5083 0.6952 -0.5083
vn 0.5083 -0.6952 -0.5083
vn 0.8567 -0.3743 -0.3548
vn 0.3724 -0.9152 -0.1542
vn 0.3724 0.9152 -0.1542
vn 0.6641 0.6952 -0.2751
vn 0.9239 0.0000 -0.3827
vn 0.7071 0.0000 -0.7071
vn 0.8567 0.3743 -0.3548
vn 0.4031 0.9152 0.0000
vn 0.9273 0.3743 0.0000
vn 0.9273 -0.3743 0.0000
vn 0.6641 -0.6952 -0.2751
vn 0.4031 -0.9152 0.0000
vn 0.7188 -0.6952 0.0000
vn 0.3724 -0.9152 0.1542
vn 0.3724 0.9152 0.1542
vn 0.7188 0.6952 0.0000
vn 0.8567 0.3743 0.3548
vn 1.0000 0.0000 0.0000
vn 0.8567 -0.3743 0.3548
vn 0.2850 0.9152 0.2850
vn 0.6641 0.6952 0.2751
vn 0.6557 0.3743 0.6557
vn 0.9239 0.0000 0.3827
vn 0.6557 -0.3743 0.6557
vn 0.6641 -0.6952 0.2751
vn 0.2850 -0.9152 0.2850
vn 0.1542 -0.9152 0.3724
vn 0.1542 0.9152 0.3724
vn 0.5083 0.6952 0.5083
vn 0.3548 0.3743 0.8567
vn 0.3827 0.0000 0.9239
vn 0.7071 0.0000 0.7071
vn 0.5083 -0.6952 0.5083
vn 0.3548 -0.3743 0.8567
vn 0.2751 0.6952 0.6641
vn 0.2751 -0.6952 0.6641
s 1
f 114/1/1 11/2/2 4/3/3
f 113/4/4 9/5/5 3/6/6
f 112/7/7 7/8/8 2/9/9
f 1/10/10 5/11/11 111/12/12
f 11/2/2 113/4/4 4/3/3
f 9/5/5 112/7/7 3/6/6
f 7/8/8 1/10/10 2/9/9
f 111/12/12 5/11/11 110/13/13
f 13/14/14 5/11/11 6/15/15
f 18/16/16 10/17/17 11/2/2
f 16/18/18 8/19/19 9/5/5
f 7/8/8 13/14/14 6/15/15
f 5/11/11 12/20/20 110/21/13
f 114/22/1 18/16/16 11/2/2
f 17/23/21 9/5/5 10/17/17
f 15/24/22 7/8/8 8/19/19
f 18/16/16 24/25/23 17/23/21
f 23/26/24 15/24/22 16/18/18
f 21/27/25 13/14/14 14/28/26
f 12/20/20 19/29/27 110/30/13
f 114/31/1 25/32/28 18/16/16
f 24/25/23 16/18/18 17/23/21
f 22/33/29 14/28/26 15/24/22
f 13/14/14 19/29/27 12/20/20
f 19/29/27 26/34/30 110/35/13
f 114/36/1 32/37/31 25/32/28
f 31/38/32 23/26/24 24/25/23
f 22/33/29 28/39/33 21/27/25
f 20/40/34 26/34/30 19/29/27
f 25/32/28 31/38/32 24/25/23
f 30/41/35 22/33/29 23/26/24
f 28/39/33 20/40/34 21/27/25
f 38/42/36 30/41/35 31/38/32
f 36/43/37 28/39/33 29/44/38
f 27/45/39 33/46/40 26/34/30
f 39/47/41 31/38/32 32/37/31
f 37/48/42 29/44/38 30/41/35
f 28/39/33 34/49/43 27/45/39
f 26/34/30 33/46/40 110/50/13
f 114/51/1 39/47/41 32/37/31
f 39/47/41 45/52/44 38/42/36
f 44/53/45 36/43/37 37/48/42
f 42/54/46 34/49/43 35/55/47
f 33/46/40 40/56/48 110/57/13
f 114/58/1 46/59/49 39/47/41
f 45/52/44 37/48/42 38/42/36
f 43/60/50 35/55/47 36/43/37
f 41/61/51 33/46/40 34/49/43
f 51/62/52 43/60/50 44/53/45
f 49/63/53 41/61/51 42/54/46
f 40/56/48 47/64/54 110/65/13
f 114/66/1 53/67/55 46/59/49
f 52/68/56 44/53/45 45/52/44
f 43/60/50 49/63/53 42/54/46
f 41/61/51 47/64/54 40/56/48
f 53/67/55 45/52/44 46/59/49
f 114/69/1 60/70/57 53/67/55
f 59/71/58 51/62/52 52/68/56
f 57/72/59 49/63/53 50/73/60
f 55/74/61 47/64/54 48/75/62
f 60/70/57 52/68/56 53/67/55
f 58/76/63 50/73/60 51/62/52
f 56/77/64 48/75/62 49/63/53
f 47/64/54 54/78/65 110/79/13
f 64/80/66 56/77/64 57/72/59
f 55/74/61 61/81/67 54/78/65
f 60/70/57 66/82/68 59/71/58
f 65/83/69 57/72/59 58/76/63
f 63/84/70 55/74/61 56/77/64
f 54/78/65 61/81/67 110/85/13
f 114/86/1 67/87/71 60/70/57
f 66/82/68 58/76/63 59/71/58
f 74/88/72 66/82/68 67/87/71
f 72/89/73 64/80/66 65/83/69
f 70/90/74 62/91/75 63/84/70
f 61/81/67 68/92/76 110/93/13
f 114/94/1 74/88/72 67/87/71
f 73/95/77 65/83/69 66/82/68
f 64/80/66 70/90/74 63/84/70
f 69/96/78 61/81/67 62/91/75
f 77/97/79 69/96/78 70/90/74
f 68/92/76 75/98/80 110/99/13
f 114/100/1 81/101/81 74/88/72
f 80/102/82 72/89/73 73/95/77
f 78/103/83 70/90/74 71/104/84
f 69/96/78 75/98/80 68/92/76
f 81/101/81 73/95/77 74/88/72
f 79/105/85 71/104/84 72/89/73
f 114/106/1 88/107/86 81/101/81
f 80/102/82 86/108/87 79/105/85
f 78/103/83 84/109/88 77/97/79
f 76/110/89 82/111/90 75/98/80
f 88/107/86 80/102/82 81/101/81
f 86/108/87 78/103/83 79/105/85
f 84/109/88 76/110/89 77/97/79
f 75/98/80 82/111/90 110/112/13
f 83/113/91 89/114/92 82/115/90
f 95/116/93 87/117/94 88/118/86
f 93/119/95 85/120/96 86/121/87
f 91/122/97 83/113/91 84/123/88
f 82/115/90 89/114/92 110/124/13
f 114/125/1 95/116/93 88/118/86
f 87/117/94 93/119/95 86/121/87
f 85/120/96 91/122/97 84/123/88
f 102/126/98 94/127/99 95/116/93
f 100/128/100 92/129/101 93/119/95
f 98/130/102 90/131/103 91/122/97
f 89/114/92 96/132/104 110/133/13
f 114/134/1 102/126/98 95/116/93
f 94/127/99 100/128/100 93/119/95
f 92/129/101 98/130/102 91/122/97
f 90/131/103 96/132/104 89/114/92
f 96/132/104 103/135/105 110/136/13
f 114/137/1 109/138/106 102/126/98
f 101/139/107 107/140/108 100/128/100
f 106/141/109 98/130/102 99/142/110
f 97/143/111 103/135/105 96/132/104
f 109/138/106 101/139/107 102/126/98
f 107/140/108 99/142/110 100/128/100
f 105/144/112 97/143/111 98/130/102
f 108/145/113 3/6/6 107/140/108
f 106/141/109 2/9/9 105/144/112
f 1/10/10 103/135/105 104/146/114
f 4/3/3 108/145/113 109/138/106
f 3/6/6 106/141/109 107/140/108
f 105/144/112 1/10/10 104/146/114
f 103/135/105 111/12/12 110/147/13
f 114/148/1 4/3/3 109/138/106
f 113/4/4 10/17/17 9/5/5
f 112/7/7 8/19/19 7/8/8
f 1/10/10 6/15/15 5/11/11
f 11/2/2 10/17/17 113/4/4
f 9/5/5 8/19/19 112/7/7
f 7/8/8 6/15/15 1/10/10
f 13/14/14 12/20/20 5/11/11
f 18/16/16 17/23/21 10/17/17
f 16/18/18 15/24/22 8/19/19
f 7/8/8 14/28/26 13/14/14
f 17/23/21 16/18/18 9/5/5
f 15/24/22 14/28/26 7/8/8
f 18/16/16 25/32/28 24/25/23
f 23/26/24 22/33/29 15/24/22
f 21/27/25 20/40/34 13/14/14
f 24/25/23 23/26/24 16/18/18
f 22/33/29 21/27/25 14/28/26
f 13/14/14 20/40/34 19/29/27
f 31/38/32 30/41/35 23/26/24
f 22/33/29 29/44/38 28/39/33
f 20/40/34 27/45/39 26/34/30
f 25/32/28 32/37/31 31/38/32
f 30/41/35 29/44/38 22/33/29
f 28/39/33 27/45/39 20/40/34
f 38/42/36 37/48/42 30/41/35
f 36/43/37 35/55/47 28/39/33
f 27/45/39 34/49/43 33/46/40
f 39/47/41 38/42/36 31/38/32
f 37/48/42 36/43/37 29/44/38
f 28/39/33 35/55/47 34/49/43
f 39/47/41 46/59/49 45/52/44
f 44/53/45 43/60/50 36/43/37
f 42/54/46 41/61/51 34/49/43
f 45/52/44 44/53/45 37/48/42
f 43/60/50 42/54/46 35/55/47
f 41/61/51 40/56/48 33/46/40
f 51/62/52 50/73/60 43/60/50
f 49/63/53 48/75/62 41/61/51
f 52/68/56 51/62/52 44/53/45
f 43/60/50 50/73/60 49/63/53
f 41/61/51 48/75/62 47/64/54
f 53/67/55 52/68/56 45/52/44
f 59/71/58 58/76/63 51/62/52
f 57/72/59 56/77/64 49/63/53
f 55/74/61 54/78/65 47/64/54
f 60/70/57 59/71/58 52/68/56
f 58/76/63 57/72/59 50/73/60
f 56/77/64 55/74/61 48/75/62
f 64/80/66 63/84/70 56/77/64
f 55/74/61 62/91/75 61/81/67
f 60/70/57 67/87/71 66/82/68
f 65/83/69 64/80/66 57/72/59
f 63/84/70 62/91/75 55/74/61
f 66/82/68 65/83/69 58/76/63
f 74/88/72 73/95/77 66/82/68
f 72/89/73 71/104/84 64/80/66
f 70/90/74 69/96/78 62/91/75
f 73/95/77 72/89/73 65/83/69
f 64/80/66 71/104/84 70/90/74
f 69/96/78 68/92/76 61/81/67
f 77/97/79 76/110/89 69/96/78
f 80/102/82 79/105/85 72/89/73
f 78/103/83 77/97/79 70/90/74
f 69/96/78 76/110/89 75/98/80
f 81/101/81 80/102/82 73/95/77
f 79/105/85 78/103/83 71/104/84
f 80/102/82 87/149/94 86/108/87
f 78/103/83 85/150/96 84/109/88
f 76/110/89 83/151/91 82/111/90
f 88/107/86 87/149/94 80/102/82
f 86/108/87 85/150/96 78/103/83
f 84/109/88 83/151/91 76/110/89
f 83/113/91 90/131/103 89/114/92
f 95/116/93 94/127/99 87/117/94
f 93/119/95 92/129/101 85/120/96
f 91/122/97 90/131/103 83/113/91
f 87/117/94 94/127/99 93/119/95
f 85/120/96 92/129/101 91/122/97
f 102/126/98 101/139/107 94/127/99
f 100/128/100 99/142/110 92/129/101
f 98/130/102 97/143/111 90/131/103
f 94/127/99 101/139/107 100/128/100
f 92/129/101 99/142/110 98/130/102
f 90/131/103 97/143/111 96/132/104
f 101/139/107 108/145/113 107/140/108
f 106/141/109 105/144/112 98/130/102
f 97/143/111 104/146/114 103/135/105
f 109/138/106 108/145/113 101/139/107
f 107/140/108 106/141/109 99/142/110
f 105/144/112 104/146/114 97/143/111
f 108/145/113 113/4/4 3/6/6
f 106/141/109 112/7/7 2/9/9
f 1/10/10 111/12/12 103/135/105
f 4/3/3 113/4/4 108/145/113
f 3/6/6 112/7/7 106/141/109
f 105/144/112 2/9/9 1/10/10
