o MD_Target
v 0.000000 5.138930 0.000000
v -0.195090 5.119716 0.000000
v -0.382683 5.062810 0.000000
v -0.555570 4.970400 0.000000
v -0.707107 4.846037 0.000000
v -0.831470 4.694500 0.000000
v -0.923880 4.521614 0.000000
v -0.980785 4.334021 0.000000
v -1.000000 4.138930 0.000000
v -0.980785 3.943840 -0.000000
v -0.923880 3.756247 -0.000000
v -0.831470 3.583360 -0.000000
v -0.707107 3.431823 -0.000000
v -0.555570 3.307461 -0.000000
v -0.382683 3.215051 -0.000000
v -0.195090 3.158145 -0.000000
v 0.000000 3.138930 -0.000000
v 0.195091 3.158145 -0.000000
v 0.382684 3.215051 -0.000000
v 0.555571 3.307461 -0.000000
v 0.707107 3.431824 -0.000000
v 0.831470 3.583361 -0.000000
v 0.923880 3.756248 -0.000000
v 0.980785 3.943841 -0.000000
v 1.000000 4.138931 0.000000
v 0.980785 4.334022 0.000000
v 0.923879 4.521615 0.000000
v 0.831469 4.694501 0.000000
v 0.707106 4.846038 0.000000
v 0.555569 4.970401 0.000000
v 0.382682 5.062810 0.000000
v 0.195089 5.119716 0.000000
v -0.195090 0.006405 -0.000000
v 0.000000 -0.012810 -0.000000
v 0.195090 0.006405 -0.000000
vt 0.959110 0.688997
vt 0.688512 0.035715
vt 0.035230 0.306313
vt 0.497170 -0.002345
vt 0.594715 -1.568608
vt 0.497170 -1.578215
vt 0.399625 -1.568608
vt 0.399625 0.007262
vt 0.305828 0.959595
vt 0.399625 0.988048
vt 0.497170 0.997655
vt 0.594714 0.988048
vt 0.688511 0.959595
vt 0.774955 0.913390
vt 0.850723 0.851209
vt 0.912904 0.775441
vt 0.987563 0.595201
vt 0.997170 0.497656
vt 0.987563 0.400110
vt 0.959110 0.306314
vt 0.912905 0.219870
vt 0.850724 0.144102
vt 0.774955 0.081920
vt 0.594715 0.007263
vt 0.305828 0.035715
vt 0.219385 0.081920
vt 0.143617 0.144102
vt 0.081435 0.219870
vt 0.006777 0.400110
vt -0.002830 0.497655
vt 0.006777 0.595200
vt 0.035230 0.688997
vt 0.081435 0.775440
vt 0.143617 0.851208
vt 0.219385 0.913390
vn -0.0000 0.0000 -1.0000
s off
f 27/1/1 19/2/1 11/3/1
f 17/4/1 35/5/1 34/6/1
f 17/4/1 33/7/1 16/8/1
f 3/9/1 2/10/1 1/11/1
f 1/11/1 32/12/1 3/9/1
f 32/12/1 31/13/1 3/9/1
f 31/13/1 30/14/1 29/15/1
f 29/15/1 28/16/1 27/1/1
f 27/1/1 26/17/1 25/18/1
f 25/18/1 24/19/1 27/1/1
f 24/19/1 23/20/1 27/1/1
f 23/20/1 22/21/1 19/2/1
f 22/21/1 21/22/1 19/2/1
f 21/22/1 20/23/1 19/2/1
f 19/2/1 18/24/1 17/4/1
f 17/4/1 16/8/1 15/25/1
f 15/25/1 14/26/1 13/27/1
f 13/27/1 12/28/1 11/3/1
f 11/3/1 10/29/1 9/30/1
f 9/30/1 8/31/1 11/3/1
f 8/31/1 7/32/1 11/3/1
f 7/32/1 6/33/1 5/34/1
f 5/34/1 4/35/1 3/9/1
f 31/13/1 29/15/1 3/9/1
f 29/15/1 27/1/1 3/9/1
f 19/2/1 17/4/1 11/3/1
f 17/4/1 15/25/1 11/3/1
f 15/25/1 13/27/1 11/3/1
f 7/32/1 5/34/1 11/3/1
f 5/34/1 3/9/1 11/3/1
f 27/1/1 23/20/1 19/2/1
f 3/9/1 27/1/1 11/3/1
f 17/4/1 18/24/1 35/5/1
f 17/4/1 34/6/1 33/7/1
